<svg width="639" height="103" viewBox="0 0 639 103" fill="none" xmlns="http://www.w3.org/2000/svg">
<path fill-rule="evenodd" clip-rule="evenodd" d="M588.275 0C574.133 0 561.422 4.44541 552.201 13.2849C542.931 22.172 537.55 35.1598 537.55 51.4357C537.55 67.7106 542.93 80.7273 552.196 89.6455C561.414 98.518 574.126 103 588.275 103C602.417 103 615.13 98.5544 624.351 89.6964C633.622 80.791 639 67.771 639 51.4357C639 35.0995 633.621 22.1083 624.346 13.234C615.122 4.40893 602.409 0 588.275 0ZM588.153 84.6875C578.511 84.6875 570.57 81.9224 565.078 76.6562C559.646 71.4475 556.134 63.3359 556.134 51.5643C556.134 39.8014 559.672 31.6511 565.128 26.4042C570.642 21.1017 578.587 18.3125 588.153 18.3125C597.776 18.3125 605.788 21.1318 611.352 26.4585C616.857 31.7283 620.416 39.8809 620.416 51.5643C620.416 63.2467 616.858 71.3625 611.359 76.5988C605.798 81.8947 597.786 84.6875 588.153 84.6875Z" fill="white"/>
<path d="M431.493 1.54224V101.458H449.712V37.303L449.141 27.6809L458.301 39.9595L507.128 101.458H525.388V1.54224H507.17V63.5126L507.74 73.1347L498.58 60.8556L451.459 1.54224H431.493Z" fill="white"/>
<path fill-rule="evenodd" clip-rule="evenodd" d="M368.59 0C354.448 0 341.737 4.44541 332.516 13.2849C323.246 22.172 317.865 35.1598 317.865 51.4357C317.865 67.7106 323.245 80.7273 332.511 89.6455C341.729 98.518 354.441 103 368.59 103C382.732 103 395.445 98.5544 404.667 89.6964C413.937 80.791 419.315 67.771 419.315 51.4357C419.315 35.0995 413.936 22.1083 404.661 13.234C395.437 4.40893 382.725 0 368.59 0ZM368.468 84.6875C358.826 84.6875 350.885 81.9224 345.393 76.6562C339.961 71.4475 336.449 63.3359 336.449 51.5643C336.449 39.8014 339.987 31.6511 345.443 26.4042C350.957 21.1017 358.902 18.3125 368.468 18.3125C378.092 18.3125 386.103 21.1318 391.667 26.4585C397.172 31.7283 400.731 39.8809 400.731 51.5643C400.731 63.2467 397.173 71.3625 391.674 76.5988C386.113 81.8947 378.101 84.6875 368.468 84.6875Z" fill="white"/>
<path fill-rule="evenodd" clip-rule="evenodd" d="M215.378 1.54224V101.458H233.962V67.4031H266.599L292.678 101.458H312.198V95.5867L288.122 65.5506C293.127 63.957 297.387 61.2795 300.635 57.2756C305.207 51.6411 307.323 43.939 307.323 34.4727C307.323 23.6927 304.575 15.2024 298.634 9.48336C292.76 3.82965 284.438 1.54224 274.634 1.54224H215.378ZM273.781 49.0906H233.962V19.8548H273.781C279.518 19.8548 283.079 21.0293 285.219 23.0144C287.252 24.9006 288.739 28.2225 288.739 34.4727C288.739 40.7229 287.252 44.0447 285.219 45.9309C283.079 47.916 279.518 49.0906 273.781 49.0906Z" fill="white"/>
<path d="M110.296 1.54224V101.458H128.88V60.3351H180.489V101.458H199.073V1.54224H180.489V42.0226H128.88V1.54224H110.296Z" fill="white"/>
<path d="M79.6123 39.2595H98.5269L97.3097 34.2473C94.5298 22.8006 88.6328 14.1298 80.3815 8.37658C72.1895 2.66464 61.9312 0 50.6032 0C36.1231 0 23.4198 4.39806 14.2985 13.2538C5.13205 22.1533 0 35.1524 0 51.4357C0 67.718 5.131 80.7441 14.2751 89.6741C23.3773 98.563 36.0507 103 50.4814 103C62.4 103 73.1268 99.993 81.5204 93.7136C89.9707 87.3919 95.778 77.9553 98.0868 65.7125L98.9918 60.9133H80.0831L79.4222 64.0612C77.8549 71.5276 74.3802 76.5335 69.6495 79.7559C64.8218 83.0445 58.365 84.6875 50.6032 84.6875C40.5126 84.6875 32.5997 81.8789 27.2358 76.6344C21.9207 71.4375 18.584 63.335 18.584 51.5643C18.584 39.7932 21.9209 31.6583 27.2668 26.4294C32.6609 21.1533 40.6343 18.3125 50.847 18.3125C57.9821 18.3125 64.0161 19.6838 68.6867 22.5535C73.2658 25.367 76.7914 29.7725 78.7755 36.4452L79.6123 39.2595Z" fill="white"/>
</svg>
