<svg width="512" height="512" viewBox="0 0 512 512" fill="none" xmlns="http://www.w3.org/2000/svg">
<rect x="2.16949" y="2.16949" width="507.661" height="507.661" rx="101.966" fill="url(#paint0_linear_34_3)"/>
<rect x="2.16949" y="2.16949" width="507.661" height="507.661" rx="101.966" stroke="url(#paint1_linear_34_3)" stroke-width="4.33898"/>
<g filter="url(#filter0_ddddn_34_3)">
<path d="M333.211 171.121L287.998 246.926C305.566 275.056 324.232 295.706 324.232 330.487C324.232 368.685 288.393 399.999 288.393 399.999H377.731L422.4 323.658L333.211 171.121Z" fill="url(#paint2_linear_34_3)"/>
<path d="M333.211 171.121L287.998 246.926C305.566 275.056 324.232 295.706 324.232 330.487C324.232 368.685 288.393 399.999 288.393 399.999H377.731L422.4 323.658L333.211 171.121Z" fill="url(#paint3_linear_34_3)" fill-opacity="0.11"/>
<path d="M333.211 171.121L287.998 246.926C305.566 275.056 324.232 295.706 324.232 330.487C324.232 368.685 288.393 399.999 288.393 399.999H377.731L422.4 323.658L333.211 171.121Z" fill="url(#paint4_linear_34_3)" fill-opacity="0.19"/>
<path d="M185.741 330.479C185.741 371.099 221.513 400 221.513 400H134.267L89.6001 323.657L213.658 112H296.869C296.869 112 296.869 112 230.271 221.239C191.918 283.637 185.741 302.142 185.741 330.479Z" fill="url(#paint5_linear_34_3)"/>
<path d="M185.741 330.479C185.741 371.099 221.513 400 221.513 400H134.267L89.6001 323.657L213.658 112H296.869C296.869 112 296.869 112 230.271 221.239C191.918 283.637 185.741 302.142 185.741 330.479Z" fill="url(#paint6_linear_34_3)" fill-opacity="0.11"/>
<path d="M185.741 330.479C185.741 371.099 221.513 400 221.513 400H134.267L89.6001 323.657L213.658 112H296.869C296.869 112 296.869 112 230.271 221.239C191.918 283.637 185.741 302.142 185.741 330.479Z" fill="url(#paint7_linear_34_3)" fill-opacity="0.19"/>
<path d="M294.021 113.6C294.011 113.616 294.001 113.632 293.991 113.648C293.98 113.666 293.97 113.683 293.959 113.7L293.895 113.806C293.884 113.823 293.873 113.841 293.862 113.859C293.851 113.877 293.84 113.896 293.829 113.914L293.76 114.025C293.749 114.044 293.738 114.063 293.726 114.082C293.714 114.101 293.703 114.12 293.691 114.14C293.679 114.159 293.668 114.179 293.656 114.198C293.644 114.218 293.632 114.237 293.62 114.257C293.608 114.276 293.596 114.297 293.583 114.316C293.571 114.336 293.559 114.357 293.546 114.377C293.534 114.397 293.521 114.418 293.508 114.438C293.496 114.459 293.484 114.48 293.471 114.501C293.458 114.522 293.445 114.542 293.432 114.563C293.419 114.584 293.407 114.606 293.394 114.627C293.381 114.648 293.367 114.671 293.354 114.692C293.341 114.714 293.328 114.735 293.315 114.757C293.302 114.779 293.287 114.801 293.274 114.823C293.261 114.845 293.247 114.867 293.234 114.89C293.22 114.912 293.206 114.935 293.192 114.958C293.178 114.981 293.165 115.004 293.151 115.026C293.137 115.049 293.122 115.072 293.108 115.096C293.094 115.119 293.08 115.143 293.066 115.166C293.052 115.189 293.036 115.213 293.022 115.236L292.934 115.381L292.844 115.529C292.829 115.554 292.814 115.579 292.798 115.604L292.705 115.757C292.689 115.783 292.674 115.809 292.658 115.835C292.642 115.861 292.626 115.888 292.61 115.914C292.594 115.94 292.577 115.967 292.561 115.993C292.545 116.02 292.529 116.047 292.512 116.074C292.496 116.101 292.479 116.128 292.462 116.155C292.446 116.182 292.429 116.21 292.413 116.237C292.396 116.265 292.379 116.293 292.362 116.32C292.345 116.348 292.327 116.376 292.31 116.404C292.293 116.432 292.276 116.461 292.258 116.489C292.241 116.518 292.224 116.546 292.207 116.575C292.189 116.604 292.171 116.633 292.153 116.662C292.135 116.691 292.118 116.721 292.1 116.75C292.082 116.779 292.063 116.808 292.045 116.838C292.027 116.867 292.01 116.898 291.992 116.928L291.88 117.109L291.767 117.295C291.748 117.326 291.729 117.358 291.709 117.39C291.69 117.421 291.671 117.453 291.652 117.485C291.632 117.517 291.613 117.549 291.593 117.581L291.474 117.776C291.454 117.809 291.434 117.843 291.414 117.876C291.393 117.909 291.372 117.942 291.352 117.976C291.332 118.009 291.311 118.043 291.291 118.077C291.27 118.111 291.249 118.145 291.228 118.179C291.207 118.213 291.187 118.248 291.166 118.282C291.145 118.317 291.123 118.351 291.102 118.386C291.081 118.421 291.059 118.456 291.038 118.491C291.016 118.526 290.995 118.562 290.973 118.598L290.842 118.812C290.82 118.849 290.798 118.885 290.776 118.922C290.754 118.958 290.731 118.995 290.708 119.032C290.686 119.069 290.663 119.106 290.64 119.144C290.617 119.181 290.595 119.218 290.572 119.256C290.549 119.293 290.526 119.331 290.502 119.369C290.479 119.407 290.456 119.445 290.433 119.483C290.41 119.522 290.386 119.561 290.363 119.6C290.339 119.638 290.315 119.677 290.292 119.716L290.147 119.952C290.123 119.992 290.099 120.032 290.075 120.072L289.926 120.314C289.901 120.355 289.876 120.396 289.851 120.438C289.826 120.479 289.801 120.521 289.776 120.562C289.751 120.604 289.724 120.646 289.699 120.688C289.673 120.729 289.648 120.771 289.623 120.813L289.466 121.069C289.44 121.112 289.414 121.156 289.387 121.199C289.361 121.243 289.334 121.286 289.307 121.33C289.281 121.374 289.254 121.418 289.227 121.462C289.2 121.506 289.172 121.551 289.145 121.596C289.118 121.64 289.091 121.685 289.064 121.729C289.037 121.774 289.009 121.82 288.981 121.865C288.953 121.911 288.926 121.956 288.898 122.002C288.87 122.048 288.842 122.094 288.814 122.14C288.786 122.186 288.757 122.232 288.729 122.278C288.701 122.325 288.673 122.371 288.644 122.418C288.616 122.465 288.587 122.512 288.558 122.56C288.529 122.607 288.5 122.655 288.471 122.702C288.442 122.75 288.413 122.798 288.383 122.846C288.354 122.894 288.325 122.942 288.295 122.99C288.266 123.039 288.236 123.088 288.207 123.137C288.177 123.185 288.147 123.234 288.117 123.283C288.087 123.332 288.056 123.382 288.026 123.432C287.996 123.481 287.965 123.531 287.935 123.581C287.905 123.631 287.874 123.682 287.843 123.732C287.813 123.783 287.781 123.833 287.75 123.884C287.72 123.935 287.688 123.986 287.657 124.037C287.625 124.088 287.594 124.141 287.563 124.192C287.532 124.244 287.499 124.296 287.467 124.348C287.436 124.4 287.404 124.452 287.372 124.505C287.34 124.557 287.308 124.61 287.276 124.663C287.244 124.716 287.211 124.769 287.178 124.822C287.146 124.875 287.113 124.929 287.081 124.982C287.048 125.036 287.015 125.09 286.982 125.145C286.949 125.199 286.916 125.253 286.882 125.308L286.681 125.638C286.647 125.693 286.614 125.749 286.58 125.805C286.546 125.86 286.511 125.917 286.477 125.973C286.443 126.029 286.408 126.086 286.374 126.143C286.339 126.199 286.304 126.256 286.269 126.313C286.234 126.371 286.2 126.428 286.165 126.485C286.129 126.543 286.093 126.601 286.058 126.659C286.023 126.717 285.987 126.776 285.952 126.834C285.916 126.892 285.88 126.951 285.844 127.01C285.808 127.069 285.773 127.128 285.737 127.188C285.701 127.247 285.664 127.307 285.627 127.366C285.591 127.426 285.555 127.486 285.518 127.546C285.481 127.606 285.445 127.666 285.408 127.727C285.371 127.787 285.334 127.848 285.296 127.909C285.259 127.97 285.222 128.032 285.184 128.094C285.147 128.155 285.109 128.217 285.071 128.279C285.033 128.341 284.996 128.403 284.958 128.466C284.919 128.528 284.881 128.59 284.842 128.653C284.804 128.716 284.766 128.78 284.727 128.843C284.688 128.906 284.65 128.97 284.611 129.034C284.572 129.098 284.533 129.161 284.494 129.226C284.455 129.29 284.415 129.354 284.375 129.419C284.336 129.484 284.296 129.549 284.256 129.614C284.217 129.679 284.177 129.745 284.137 129.811C284.097 129.876 284.057 129.942 284.017 130.008C283.977 130.074 283.936 130.14 283.895 130.207C283.854 130.274 283.814 130.34 283.773 130.407C283.732 130.474 283.691 130.542 283.65 130.609C283.609 130.677 283.567 130.745 283.526 130.812C283.484 130.88 283.444 130.949 283.402 131.018C283.36 131.086 283.318 131.155 283.276 131.224C283.234 131.292 283.191 131.361 283.149 131.431C283.107 131.5 283.065 131.57 283.022 131.64C282.979 131.709 282.937 131.779 282.894 131.85C282.851 131.92 282.807 131.991 282.764 132.062C282.721 132.132 282.678 132.204 282.634 132.275C282.591 132.347 282.547 132.418 282.503 132.489L282.24 132.923C282.195 132.996 282.151 133.069 282.106 133.143C282.061 133.216 282.016 133.29 281.971 133.363C281.926 133.437 281.882 133.511 281.836 133.585C281.791 133.659 281.745 133.734 281.7 133.809C281.654 133.883 281.609 133.958 281.563 134.033C281.517 134.108 281.47 134.184 281.424 134.26C281.378 134.335 281.332 134.411 281.286 134.487C281.239 134.564 281.193 134.64 281.146 134.717C281.099 134.793 281.052 134.87 281.005 134.947C280.958 135.024 280.911 135.102 280.864 135.18C280.816 135.257 280.769 135.336 280.721 135.414C280.674 135.492 280.626 135.571 280.578 135.649C280.53 135.728 280.481 135.807 280.433 135.887C280.385 135.966 280.336 136.045 280.288 136.125C280.239 136.205 280.19 136.284 280.141 136.364C280.092 136.445 280.043 136.526 279.994 136.606C279.944 136.687 279.896 136.768 279.846 136.85C279.797 136.931 279.747 137.012 279.697 137.094C279.647 137.176 279.597 137.258 279.546 137.34C279.496 137.422 279.446 137.505 279.396 137.588C279.346 137.671 279.294 137.754 279.244 137.837C279.193 137.92 279.142 138.004 279.091 138.088C279.04 138.172 278.988 138.256 278.937 138.34C278.886 138.424 278.834 138.509 278.782 138.594C278.73 138.679 278.679 138.764 278.626 138.85C278.574 138.935 278.522 139.02 278.469 139.106C278.417 139.192 278.365 139.279 278.312 139.365C278.259 139.452 278.206 139.539 278.153 139.626C278.1 139.713 278.047 139.8 277.994 139.888C277.94 139.975 277.886 140.063 277.833 140.151C277.779 140.239 277.725 140.328 277.671 140.416C277.617 140.505 277.563 140.593 277.508 140.683C277.454 140.772 277.4 140.861 277.345 140.951C277.291 141.041 277.235 141.13 277.18 141.221C277.125 141.311 277.07 141.402 277.015 141.493C276.96 141.584 276.904 141.674 276.848 141.766C276.792 141.857 276.737 141.949 276.681 142.041C276.625 142.133 276.569 142.225 276.512 142.317C276.456 142.41 276.399 142.503 276.342 142.596C276.286 142.688 276.229 142.782 276.172 142.875C276.115 142.968 276.058 143.062 276 143.156C275.943 143.25 275.885 143.345 275.828 143.439C275.77 143.534 275.713 143.629 275.655 143.725C275.597 143.82 275.538 143.915 275.48 144.011C275.422 144.106 275.363 144.203 275.304 144.299C275.245 144.395 275.187 144.492 275.127 144.589C275.068 144.686 275.009 144.783 274.95 144.88C274.89 144.977 274.831 145.075 274.771 145.173C274.711 145.271 274.651 145.369 274.591 145.468C274.531 145.566 274.471 145.666 274.411 145.765C274.35 145.864 274.29 145.963 274.229 146.062C274.168 146.162 274.107 146.263 274.045 146.363C273.984 146.463 273.923 146.564 273.862 146.665C273.8 146.766 273.739 146.867 273.677 146.968C273.615 147.069 273.553 147.171 273.491 147.273C273.429 147.375 273.367 147.478 273.304 147.58C273.242 147.683 273.179 147.786 273.116 147.889C273.053 147.992 272.989 148.096 272.926 148.199C272.863 148.303 272.799 148.407 272.736 148.511C272.672 148.615 272.609 148.72 272.545 148.825C272.481 148.93 272.417 149.035 272.353 149.141C272.289 149.246 272.223 149.352 272.159 149.458C272.094 149.564 272.029 149.67 271.964 149.776C271.899 149.883 271.834 149.99 271.769 150.098C271.704 150.205 271.638 150.312 271.572 150.42C271.506 150.528 271.441 150.636 271.375 150.744C271.308 150.853 271.242 150.961 271.175 151.07C271.109 151.179 271.043 151.289 270.976 151.398C270.909 151.508 270.842 151.618 270.775 151.729C270.708 151.839 270.64 151.95 270.573 152.061C270.505 152.171 270.437 152.282 270.37 152.394C270.302 152.505 270.233 152.616 270.165 152.729C270.096 152.84 270.028 152.953 269.959 153.065C269.891 153.178 269.821 153.291 269.752 153.404C269.683 153.517 269.615 153.631 269.545 153.745C269.476 153.859 269.406 153.973 269.336 154.088C269.267 154.202 269.197 154.317 269.126 154.432C269.056 154.547 268.986 154.663 268.916 154.778C268.845 154.894 268.774 155.01 268.704 155.126C268.633 155.242 268.561 155.359 268.49 155.476C268.419 155.592 268.347 155.71 268.276 155.827C268.204 155.945 268.132 156.063 268.06 156.181C267.988 156.299 267.916 156.417 267.843 156.536C267.771 156.655 267.698 156.774 267.625 156.894C267.553 157.013 267.48 157.133 267.407 157.253C267.334 157.373 267.26 157.493 267.187 157.613C267.113 157.734 267.039 157.855 266.965 157.977C266.892 158.098 266.818 158.219 266.744 158.341C266.669 158.463 266.595 158.585 266.52 158.708C266.445 158.83 266.37 158.953 266.295 159.076C266.22 159.199 266.144 159.323 266.069 159.446C265.993 159.57 265.918 159.695 265.842 159.819C265.766 159.944 265.69 160.068 265.614 160.193C265.538 160.318 265.461 160.444 265.384 160.569C265.308 160.695 265.231 160.821 265.154 160.947C265.077 161.074 265 161.2 264.922 161.327C264.845 161.454 264.768 161.582 264.69 161.709C264.612 161.837 264.534 161.965 264.456 162.094C264.377 162.222 264.299 162.351 264.22 162.479C264.142 162.608 264.063 162.738 263.984 162.867C263.905 162.997 263.826 163.127 263.747 163.257C263.667 163.387 263.587 163.518 263.507 163.648C263.428 163.779 263.348 163.911 263.268 164.042C263.188 164.174 263.107 164.305 263.027 164.438C262.946 164.57 262.865 164.702 262.784 164.835C262.703 164.968 262.622 165.101 262.541 165.234C262.459 165.368 262.377 165.502 262.295 165.636C262.214 165.77 262.132 165.904 262.05 166.039C261.968 166.174 261.885 166.31 261.802 166.445C261.72 166.581 261.637 166.717 261.554 166.853C261.471 166.989 261.388 167.125 261.304 167.262C261.221 167.398 261.138 167.536 261.054 167.673C260.97 167.81 260.885 167.949 260.801 168.087C260.717 168.225 260.633 168.363 260.548 168.502C260.464 168.641 260.379 168.78 260.293 168.92C260.209 169.059 260.124 169.199 260.039 169.339C259.953 169.479 259.867 169.62 259.781 169.761C259.695 169.902 259.609 170.043 259.523 170.185C259.437 170.326 259.35 170.467 259.263 170.609C259.177 170.752 259.09 170.894 259.002 171.037C258.915 171.18 258.828 171.323 258.741 171.467C258.653 171.61 258.566 171.754 258.478 171.898C258.39 172.043 258.302 172.188 258.213 172.333C258.125 172.478 258.036 172.623 257.948 172.769C257.859 172.914 257.769 173.06 257.68 173.206C257.591 173.352 257.502 173.5 257.413 173.646C257.323 173.793 257.233 173.941 257.143 174.089C257.053 174.236 256.962 174.384 256.872 174.532C256.781 174.68 256.691 174.83 256.6 174.979C256.509 175.127 256.418 175.277 256.327 175.427C256.235 175.577 256.144 175.727 256.052 175.878C255.961 176.028 255.868 176.179 255.776 176.33C255.684 176.481 255.591 176.633 255.499 176.785C255.406 176.937 255.313 177.089 255.22 177.241C255.127 177.394 255.034 177.547 254.941 177.7C254.847 177.853 254.754 178.007 254.66 178.161C254.566 178.315 254.472 178.469 254.377 178.624C254.283 178.779 254.188 178.934 254.093 179.09C253.999 179.245 253.904 179.401 253.809 179.557C253.714 179.713 253.619 179.87 253.523 180.026C253.427 180.183 253.331 180.34 253.235 180.498C253.139 180.656 253.042 180.813 252.946 180.972C252.849 181.13 252.753 181.289 252.656 181.448C252.559 181.607 252.462 181.766 252.365 181.926C252.267 182.085 252.17 182.246 252.072 182.406C251.974 182.567 251.876 182.728 251.778 182.889C251.68 183.05 251.581 183.211 251.482 183.373C251.383 183.535 251.284 183.698 251.185 183.86C251.086 184.023 250.987 184.185 250.887 184.349C250.788 184.512 250.687 184.676 250.587 184.84C250.487 185.004 250.387 185.169 250.287 185.334C250.186 185.499 250.086 185.664 249.985 185.829C249.884 185.995 249.783 186.161 249.681 186.327C249.58 186.493 249.478 186.66 249.376 186.827C249.275 186.994 249.173 187.161 249.071 187.329C248.969 187.497 248.866 187.665 248.763 187.833C248.661 188.001 248.558 188.171 248.455 188.34C248.351 188.509 248.248 188.679 248.144 188.849C248.04 189.018 247.937 189.189 247.833 189.359C247.728 189.53 247.624 189.702 247.519 189.873C247.415 190.044 247.311 190.217 247.206 190.389C247.101 190.561 246.995 190.733 246.889 190.906C246.784 191.079 246.679 191.253 246.573 191.427C246.467 191.6 246.361 191.775 246.254 191.949C246.148 192.124 246.041 192.298 245.934 192.474C245.827 192.649 245.72 192.824 245.613 193C245.506 193.176 245.398 193.353 245.291 193.529C245.183 193.706 245.075 193.883 244.966 194.061C244.858 194.238 244.75 194.416 244.641 194.594C244.532 194.772 244.423 194.951 244.314 195.13C244.205 195.309 244.095 195.488 243.986 195.668C243.876 195.848 243.767 196.028 243.657 196.209C243.547 196.39 243.436 196.571 243.326 196.752C243.215 196.933 243.105 197.115 242.994 197.297C242.883 197.479 242.771 197.662 242.66 197.845C242.548 198.027 242.437 198.21 242.325 198.394C242.213 198.577 242.1 198.762 241.988 198.946C241.875 199.131 241.763 199.316 241.65 199.501C241.537 199.686 241.424 199.872 241.311 200.058C241.198 200.243 241.084 200.43 240.97 200.616C240.856 200.803 240.742 200.99 240.627 201.178C240.513 201.365 240.398 201.553 240.284 201.741C240.169 201.93 240.054 202.119 239.939 202.308C239.824 202.497 239.708 202.686 239.592 202.876C239.477 203.066 239.36 203.256 239.244 203.446C239.127 203.637 239.012 203.828 238.895 204.02C238.778 204.211 238.661 204.403 238.543 204.596C238.426 204.788 238.309 204.98 238.192 205.173C238.074 205.366 237.956 205.56 237.837 205.754C237.719 205.947 237.601 206.142 237.483 206.336C237.364 206.53 237.245 206.726 237.125 206.921C237.006 207.116 236.888 207.313 236.768 207.509C236.648 207.705 236.528 207.902 236.408 208.099C236.288 208.295 236.168 208.493 236.047 208.69C235.927 208.888 235.805 209.087 235.684 209.285C235.563 209.484 235.442 209.683 235.321 209.883C235.199 210.082 235.077 210.282 234.955 210.482C234.833 210.682 234.711 210.883 234.588 211.084C234.466 211.285 234.342 211.487 234.219 211.688C234.096 211.89 233.974 212.092 233.85 212.295C233.727 212.498 233.602 212.701 233.478 212.904C233.354 213.108 233.229 213.311 233.105 213.516C232.98 213.72 232.856 213.925 232.731 214.13C232.606 214.335 232.48 214.54 232.355 214.746C232.23 214.952 232.104 215.159 231.978 215.365C231.852 215.572 231.726 215.78 231.599 215.987C231.473 216.195 231.345 216.403 231.218 216.611C231.091 216.82 230.964 217.028 230.836 217.237C230.709 217.447 230.581 217.656 230.453 217.866C230.325 218.076 230.196 218.287 230.068 218.498C229.939 218.709 229.811 218.92 229.682 219.132C229.553 219.343 229.423 219.555 229.293 219.768C229.165 219.978 229.037 220.19 228.908 220.401C209.73 251.603 198.531 271.933 192.136 288.042C185.712 304.226 184.141 316.141 184.141 330.479C184.141 351.257 193.285 368.966 202.333 381.413C206.864 387.647 211.394 392.592 214.793 395.982C215.719 396.905 216.563 397.712 217.299 398.4H135.185L91.4536 323.656L214.575 113.6H294.021ZM420.546 323.656L376.814 398.399H292.416C293.205 397.621 294.128 396.689 295.152 395.612C298.551 392.038 303.083 386.871 307.617 380.494C316.66 367.774 325.833 350.066 325.833 330.486C325.832 295.466 307.134 274.358 289.875 246.902L333.198 174.267L420.546 323.656Z" stroke="url(#paint8_linear_34_3)" stroke-width="3.2"/>
</g>
<defs>
<filter id="filter0_ddddn_34_3" x="39.0401" y="61.44" width="424.96" height="380.16" filterUnits="userSpaceOnUse" color-interpolation-filters="sRGB">
<feFlood flood-opacity="0" result="BackgroundImageFix"/>
<feColorMatrix in="SourceAlpha" type="matrix" values="0 0 0 0 0 0 0 0 0 0 0 0 0 0 0 0 0 0 127 0" result="hardAlpha"/>
<feOffset dx="8" dy="8"/>
<feGaussianBlur stdDeviation="8"/>
<feColorMatrix type="matrix" values="0 0 0 0 0.1691 0 0 0 0 0.178853 0 0 0 0 0.2109 0 0 0 0.43 0"/>
<feBlend mode="normal" in2="BackgroundImageFix" result="effect1_dropShadow_34_3"/>
<feColorMatrix in="SourceAlpha" type="matrix" values="0 0 0 0 0 0 0 0 0 0 0 0 0 0 0 0 0 0 127 0" result="hardAlpha"/>
<feOffset dx="-8" dy="-8"/>
<feGaussianBlur stdDeviation="21.28"/>
<feColorMatrix type="matrix" values="0 0 0 0 0.5749 0 0 0 0 0.58894 0 0 0 0 0.6451 0 0 0 1 0"/>
<feBlend mode="soft-light" in2="effect1_dropShadow_34_3" result="effect2_dropShadow_34_3"/>
<feColorMatrix in="SourceAlpha" type="matrix" values="0 0 0 0 0 0 0 0 0 0 0 0 0 0 0 0 0 0 127 0" result="hardAlpha"/>
<feOffset dx="19.2" dy="19.2"/>
<feGaussianBlur stdDeviation="11.2"/>
<feComposite in2="hardAlpha" operator="out"/>
<feColorMatrix type="matrix" values="0 0 0 0 0.0837 0 0 0 0 0.08706 0 0 0 0 0.0963 0 0 0 0.15 0"/>
<feBlend mode="normal" in2="effect2_dropShadow_34_3" result="effect3_dropShadow_34_3"/>
<feColorMatrix in="SourceAlpha" type="matrix" values="0 0 0 0 0 0 0 0 0 0 0 0 0 0 0 0 0 0 127 0" result="hardAlpha"/>
<feOffset dx="6.4" dy="6.4"/>
<feGaussianBlur stdDeviation="3.2"/>
<feComposite in2="hardAlpha" operator="out"/>
<feColorMatrix type="matrix" values="0 0 0 0 0 0 0 0 0 0 0 0 0 0 0 0 0 0 0.1 0"/>
<feBlend mode="normal" in2="effect3_dropShadow_34_3" result="effect4_dropShadow_34_3"/>
<feBlend mode="normal" in="SourceGraphic" in2="BackgroundImageFix" result="shape"/>
<feTurbulence type="fractalNoise" baseFrequency="1.5624998807907104 1.5624998807907104" stitchTiles="stitch" numOctaves="3" result="noise" seed="892" />
<feColorMatrix in="noise" type="luminanceToAlpha" result="alphaNoise" />
<feComponentTransfer in="alphaNoise" result="coloredNoise1">
<feFuncA type="discrete" tableValues="0 0 0 0 0 0 0 0 0 0 0 0 0 0 0 0 0 0 0 1 1 1 1 1 1 1 1 1 1 1 0 0 0 0 0 0 0 0 0 0 0 0 0 0 0 0 0 0 0 0 0 0 0 0 0 0 0 0 0 0 0 0 0 0 0 0 0 0 0 0 0 0 0 0 0 0 0 0 0 0 0 0 0 0 0 0 0 0 0 0 0 0 0 0 0 0 0 0 0 0 "/>
</feComponentTransfer>
<feComposite operator="in" in2="shape" in="coloredNoise1" result="noise1Clipped" />
<feComponentTransfer in="alphaNoise" result="coloredNoise2">
<feFuncA type="discrete" tableValues="0 0 0 0 0 0 0 0 0 0 0 0 0 0 0 0 0 0 0 0 0 0 0 0 0 0 0 0 0 0 0 0 0 0 0 0 0 0 0 0 0 0 0 0 0 0 0 0 0 0 0 0 0 0 0 0 0 0 0 0 0 0 0 0 0 0 0 0 0 0 1 1 1 1 1 1 1 1 1 1 1 0 0 0 0 0 0 0 0 0 0 0 0 0 0 0 0 0 0 0 "/>
</feComponentTransfer>
<feComposite operator="in" in2="shape" in="coloredNoise2" result="noise2Clipped" />
<feFlood flood-color="#22242A" result="color1Flood" />
<feComposite operator="in" in2="noise1Clipped" in="color1Flood" result="color1" />
<feFlood flood-color="#C9C1B0" result="color2Flood" />
<feComposite operator="in" in2="noise2Clipped" in="color2Flood" result="color2" />
<feMerge result="effect5_noise_34_3">
<feMergeNode in="shape" />
<feMergeNode in="color1" />
<feMergeNode in="color2" />
</feMerge>
<feBlend mode="normal" in="effect5_noise_34_3" in2="effect4_dropShadow_34_3" result="effect5_noise_34_3"/>
</filter>
<linearGradient id="paint0_linear_34_3" x1="347.119" y1="683.39" x2="-613.966" y2="32.5424" gradientUnits="userSpaceOnUse">
<stop stop-color="#23252A"/>
<stop offset="0.13" stop-color="#2E3138"/>
<stop offset="0.25" stop-color="#3A3D45"/>
<stop offset="0.37" stop-color="#4A4E59"/>
<stop offset="0.5" stop-color="#5D616F"/>
<stop offset="0.63" stop-color="#757A8A"/>
<stop offset="0.75" stop-color="#8F94A3"/>
<stop offset="0.87" stop-color="#A9AEBC"/>
<stop offset="1" stop-color="#C6C9D2"/>
</linearGradient>
<linearGradient id="paint1_linear_34_3" x1="83.3622" y1="95.3875" x2="433.683" y2="445.708" gradientUnits="userSpaceOnUse">
<stop stop-color="#C9CCD4"/>
<stop offset="1" stop-color="#353840" stop-opacity="0"/>
</linearGradient>
<linearGradient id="paint2_linear_34_3" x1="1220.1" y1="272.166" x2="89.6001" y2="272.167" gradientUnits="userSpaceOnUse">
<stop stop-color="#75798A"/>
<stop offset="1" stop-color="#9DA1AF"/>
</linearGradient>
<linearGradient id="paint3_linear_34_3" x1="104.136" y1="-409.754" x2="1278.58" y2="-54.5252" gradientUnits="userSpaceOnUse">
<stop stop-color="#C9CCD4"/>
<stop offset="1" stop-color="#C9CCD4" stop-opacity="0"/>
</linearGradient>
<linearGradient id="paint4_linear_34_3" x1="818.526" y1="-54.45" x2="617.123" y2="534.565" gradientUnits="userSpaceOnUse">
<stop stop-color="white" stop-opacity="0"/>
<stop offset="0.304574" stop-color="#858999"/>
<stop offset="0.678166" stop-color="white"/>
<stop offset="0.891648" stop-color="white" stop-opacity="0"/>
</linearGradient>
<linearGradient id="paint5_linear_34_3" x1="1220.1" y1="272.166" x2="89.6001" y2="272.167" gradientUnits="userSpaceOnUse">
<stop stop-color="#75798A"/>
<stop offset="1" stop-color="#9DA1AF"/>
</linearGradient>
<linearGradient id="paint6_linear_34_3" x1="104.136" y1="-409.754" x2="1278.58" y2="-54.5252" gradientUnits="userSpaceOnUse">
<stop stop-color="#C9CCD4"/>
<stop offset="1" stop-color="#C9CCD4" stop-opacity="0"/>
</linearGradient>
<linearGradient id="paint7_linear_34_3" x1="818.526" y1="-54.45" x2="617.123" y2="534.565" gradientUnits="userSpaceOnUse">
<stop stop-color="white" stop-opacity="0"/>
<stop offset="0.304574" stop-color="#858999"/>
<stop offset="0.678166" stop-color="white"/>
<stop offset="0.891648" stop-color="white" stop-opacity="0"/>
</linearGradient>
<linearGradient id="paint8_linear_34_3" x1="654.749" y1="-497.517" x2="971.144" y2="465.442" gradientUnits="userSpaceOnUse">
<stop stop-color="white" stop-opacity="0.5"/>
<stop offset="1" stop-color="white" stop-opacity="0"/>
</linearGradient>
</defs>
</svg>
